<?xml version="1.0" encoding="utf-8"?>
<!-- Generator: Adobe Illustrator 18.1.1, SVG Export Plug-In . SVG Version: 6.00 Build 0)  -->
<svg version="1.1" id="Layer_1" xmlns="http://www.w3.org/2000/svg" xmlns:xlink="http://www.w3.org/1999/xlink" x="0px" y="0px"
	 viewBox="0 0 100 100" enable-background="new 0 0 100 100" xml:space="preserve">
<path fill="none" stroke="#666666" stroke-width="2" stroke-miterlimit="10" d="M81,88"/>
<line fill="none" stroke="#0C4291" stroke-miterlimit="10" x1="61.2" y1="66.8" x2="61.2" y2="56"/>
<line fill="none" stroke="#0C4291" stroke-miterlimit="10" x1="50.5" y1="70.8" x2="50.5" y2="56"/>
<line fill="none" stroke="#0C4291" stroke-miterlimit="10" x1="72" y1="69.3" x2="72" y2="56"/>
<line fill="none" stroke="#0C4291" stroke-miterlimit="10" x1="39.8" y1="66.8" x2="39.8" y2="56"/>
<line fill="none" stroke="#0C4291" stroke-miterlimit="10" x1="29" y1="68.8" x2="29" y2="56"/>
<path fill="none" stroke="#666666" stroke-miterlimit="10" d="M28,70.7"/>
<path fill="#FFFFFF" d="M49.5,71H27v-0.9c0-2,1.6-3.6,3.6-3.6h15.3c2,0,3.6,1.6,3.6,3.6V71z"/>
<path fill="#FFFFFF" d="M74,71H51.5v-0.9c0-2,1.6-3.6,3.6-3.6h15.3c2,0,3.6,1.6,3.6,3.6V71z"/>
<path fill="#FBBA00" d="M81,87.1c0,0,0,2.4,0-8.4v2.6C81,70.5,72.5,71,72.5,71h-44c0,0-8.5-0.5-8.5,10.3v-2.6c0,10.8,0,8.4,0,8.4H81
	z"/>
<path fill="none" stroke="#0C4291" stroke-width="4" stroke-miterlimit="10" d="M20,96c0,0,0-17.9,0-28.7S28.5,56,28.5,56h44
	c0,0,8.5,0.5,8.5,11.3S81,96,81,96"/>
<line fill="none" stroke="#0C4291" stroke-width="4" stroke-miterlimit="10" x1="20.2" y1="89" x2="80.6" y2="89"/>
</svg>
