<?xml version="1.0" encoding="utf-8"?>
<!-- Generator: Adobe Illustrator 18.1.1, SVG Export Plug-In . SVG Version: 6.00 Build 0)  -->
<svg version="1.1" id="Layer_1" xmlns="http://www.w3.org/2000/svg" xmlns:xlink="http://www.w3.org/1999/xlink" x="0px" y="0px"
	 viewBox="0 0 100 100" enable-background="new 0 0 100 100" xml:space="preserve">
<path fill="#0C4291" d="M30.4,89.3v5.1c0,1.1-0.9,2-2,2h-7.1c-1.1,0-2-0.9-2-2v-5.1"/>
<path fill="#0C4291" d="M84.6,89.3v5.1c0,1.1-0.9,2-2,2h-7.1c-1.1,0-2-0.9-2-2v-5.1"/>
<path fill="#FBBA00" d="M24,64h-9.6c0,0-1.1,6.4,4.4,6.4"/>
<path fill="#FBBA00" d="M80,64h9.7c0,0,0.8,6.4-4.6,6.4"/>
<path fill="#FBBA00" d="M18.7,90V75.8c0-3.3,2.7-6,6-6h54.4c3.3,0,6,2.7,6,6V90H18.7z"/>
<path fill="#0C4291" d="M22.7,67.8l6.3-8.7h45.7l6.3,8.7"/>
<path fill="#FBBA00" d="M29,58.1c0-3.3,5.3-4,8.1-4h29.5c2.8,0,8.1,0.7,8.1,4"/>
<circle fill="#FFFFFF" cx="25.9" cy="76.7" r="3.2"/>
<circle fill="#FFFFFF" cx="77.9" cy="76.7" r="3.2"/>
<line fill="none" stroke="#0C4291" stroke-linejoin="round" stroke-miterlimit="10" x1="72" y1="76.5" x2="32" y2="76.5"/>
<line fill="none" stroke="#0C4291" stroke-width="2" stroke-linejoin="round" stroke-miterlimit="10" x1="57" y1="83" x2="47" y2="83"/>
<line fill="none" stroke="#FFFFFF" stroke-linejoin="round" stroke-miterlimit="10" x1="75" y1="58.5" x2="29" y2="58.5"/>
</svg>
