<?xml version="1.0" encoding="utf-8"?>
<!-- Generator: Adobe Illustrator 18.1.1, SVG Export Plug-In . SVG Version: 6.00 Build 0)  -->
<svg version="1.1" id="Layer_1" xmlns="http://www.w3.org/2000/svg" xmlns:xlink="http://www.w3.org/1999/xlink" x="0px" y="0px"
	 viewBox="0 0 100 100" enable-background="new 0 0 100 100" xml:space="preserve">
<path fill="#0C4291" d="M79.5,98.5H23.9c-1,0-1.8-0.8-1.8-1.8V63.4c0-1,0.8-1.8,1.8-1.8h55.6c1,0,1.8,0.8,1.8,1.8v33.3
	C81.3,97.6,80.5,98.5,79.5,98.5z"/>
<g id="tD9pmL.tif">
	<g>
		<path fill="#FBBA00" d="M71.2,72.2c0.5-1.3,1.1-2.6,1.6-3.9c0.2-0.6,0.7-0.5,1.1-0.4c0.2,0.1,0.5,0.4,0.5,0.6
			c0.3,1.3,0.5,2.5,0.8,3.8c-0.1,0.1-0.1,0.1-0.2,0.2c-0.3-0.1-0.6-0.2-0.8-0.4c-0.4-0.4-1.5-0.4-1.9-0.1c-0.3,0.2-0.7,0.4-1,0.5
			C71.3,72.4,71.3,72.3,71.2,72.2z M73.6,69.2c-0.1,0-0.1,0-0.2,0c-0.2,0.4-0.3,0.7-0.4,1.1c-0.1,0.2-0.1,0.5,0,0.5
			c0.2,0.1,0.5,0.1,0.7,0c0.1,0,0.2-0.3,0.2-0.5C73.9,70,73.7,69.6,73.6,69.2z"/>
		<path fill="#FBBA00" d="M62.6,70.9c0.1-0.2,0.3-0.4,0.4-0.7c0.2-0.6,0.5-1.2,0.7-1.8c0.2-0.7,0.6-0.8,1.3-0.5
			c-0.6,1.4-1.1,2.8-1.8,4.2c-0.1,0.2-0.7,0.3-1,0.3c-0.2,0-0.5-0.3-0.5-0.5c-0.3-0.9-0.5-1.8-0.7-2.7c-0.1-0.4-0.4-0.8-0.6-1.2
			c1.2-0.3,1.4-0.2,1.7,1.2c0.1,0.6,0.2,1.2,0.3,1.8C62.4,70.9,62.5,70.9,62.6,70.9z"/>
		<path fill="#FBBA00" d="M67.6,71.7c0.5,0,1,0,1.5,0c0.2,0,0.5-0.3,0.5-0.5c0-0.1-0.2-0.4-0.3-0.5c-0.2-0.2-0.5-0.3-0.7-0.5
			c-0.7-0.5-0.8-1.4-0.1-2c0.7-0.5,1.5-0.6,2.3-0.3c0.1,0,0.3,0.3,0.3,0.4c-0.1,0.1-0.3,0.3-0.4,0.3c-0.3,0-0.7-0.1-1,0
			c-0.2,0-0.4,0.2-0.4,0.4c0,0.2,0.1,0.4,0.2,0.5c0.2,0.2,0.5,0.3,0.7,0.5c0.9,0.6,0.9,1.8-0.1,2.3c-0.6,0.3-1.3,0.3-2,0.2
			C67.4,72.5,67.4,72.1,67.6,71.7z"/>
		<path fill="#FBBA00" d="M67.2,68c-0.3,1.4-0.6,2.8-0.9,4.2c0,0.1-0.4,0.2-0.6,0.2c-0.1,0-0.3-0.3-0.3-0.5c0.2-1.2,0.5-2.4,0.8-3.6
			C66.2,67.7,66.6,67.9,67.2,68z"/>
	</g>
</g>
<line fill="none" stroke="#FBBA00" stroke-width="3" stroke-miterlimit="10" x1="73" y1="82.5" x2="30" y2="82.5"/>
<line fill="none" stroke="#FBBA00" stroke-miterlimit="10" x1="51" y1="89.5" x2="30" y2="89.5"/>
</svg>
